<svg width="20" height="20" viewBox="0 0 20 20" fill="none" xmlns="http://www.w3.org/2000/svg">
<path d="M16.6571 20H3.34292C1.50308 20 0 18.4969 0 16.6571V3.34292C0 1.50308 1.50308 0 3.34292 0H16.6571C18.4969 0 20 1.50308 20 3.34292V16.6571C20 18.5051 18.5051 20 16.6571 20Z" fill="#CECECE"/>
<path d="M10.0041 15.1376C8.63244 15.1376 7.34291 14.6037 6.37371 13.6345C5.40452 12.6653 4.87064 11.3758 4.87064 10.0041C4.87064 8.63244 5.40452 7.34291 6.37371 6.37372C7.34291 5.40452 8.63244 4.87064 10.0041 4.87064C11.3758 4.87064 12.6653 5.40452 13.6345 6.37372C14.6037 7.34291 15.1376 8.63244 15.1376 10.0041C15.1376 11.3758 14.6037 12.6653 13.6345 13.6345C12.6571 14.6037 11.3758 15.1376 10.0041 15.1376ZM10.0041 5.96304C7.77823 5.96304 5.96304 7.77002 5.96304 10.0041C5.96304 12.23 7.77002 14.0452 10.0041 14.0452C12.23 14.0452 14.0452 12.2382 14.0452 10.0041C14.037 7.77823 12.23 5.96304 10.0041 5.96304Z" fill="white"/>
<path d="M16.1382 4.70192C16.6825 4.70192 17.1238 4.26063 17.1238 3.71627C17.1238 3.17191 16.6825 2.73062 16.1382 2.73062C15.5938 2.73062 15.1525 3.17191 15.1525 3.71627C15.1525 4.26063 15.5938 4.70192 16.1382 4.70192Z" fill="white"/>
</svg>
