<svg width="20" height="20" viewBox="0 0 20 20" fill="none" xmlns="http://www.w3.org/2000/svg">
<path d="M4.51614 6.57681H0.337032V19.9037H4.51614V6.57681Z" fill="#CECECE"/>
<path d="M15.8209 6.28792C15.6669 6.26866 15.5032 6.25903 15.3395 6.2494C12.9995 6.15311 11.6803 7.53972 11.2181 8.13674C11.0929 8.30044 11.0352 8.39673 11.0352 8.39673V6.61531H7.03902V19.9422H11.0352H11.2181C11.2181 18.5845 11.2181 17.2364 11.2181 15.8787C11.2181 15.1469 11.2181 14.415 11.2181 13.6832C11.2181 12.7781 11.1507 11.8151 11.6033 10.987C11.9885 10.2937 12.6818 9.94704 13.4617 9.94704C15.7728 9.94704 15.8209 12.0366 15.8209 12.2292C15.8209 12.2388 15.8209 12.2484 15.8209 12.2484V20H20V11.3048C20 8.32932 18.4882 6.57679 15.8209 6.28792Z" fill="#CECECE"/>
<path d="M2.42655 4.85316C3.76672 4.85316 4.85314 3.76674 4.85314 2.42658C4.85314 1.08642 3.76672 0 2.42655 0C1.08639 0 -1.90735e-05 1.08642 -1.90735e-05 2.42658C-1.90735e-05 3.76674 1.08639 4.85316 2.42655 4.85316Z" fill="#CECECE"/>
</svg>
